<svg id="screenshot.svg" xmlns="http://www.w3.org/2000/svg" width="16" height="13" viewBox="0 0 16 13">
  <defs>
    <style>
      .cls-1 {
        fill-rule: evenodd;
        opacity: 0.7;
      }
    </style>
  </defs>
  <path class="cls-1" d="M689,161H675a1,1,0,0,1-1-1v-9a1,1,0,0,1,1-1h3.083c0.634-1.27.859-2,1.917-2h4c1.053,0,1.289.848,1.911,2H689a1,1,0,0,1,1,1v9A1,1,0,0,1,689,161Zm-7-10.008A4.008,4.008,0,1,0,686.007,155,4.008,4.008,0,0,0,682,150.992Zm0,6.682A2.674,2.674,0,1,1,684.673,155,2.674,2.674,0,0,1,682,157.674Z" transform="translate(-674 -148)"/>
</svg>
