<svg id="audio.svg" xmlns="http://www.w3.org/2000/svg" width="28" height="28" viewBox="0 0 28 28">
  <defs>
    <style>
      .cls-1 {
        fill: #b1aea8;
        opacity: 0.1;
      }

      .cls-1, .cls-2 {
        fill-rule: evenodd;
      }

      .cls-2 {
        fill: #33332c;
      }
    </style>
  </defs>
  <path id="sizer" class="cls-1" d="M151,197h0.094v0.094H151V197Zm27.906,27.906H179V225h-0.094v-0.094Z" transform="translate(-151 -197)"/>
  <path id="Music" class="cls-2" d="M175,215.861c0,0.023.009,0.043,0.009,0.066S175,215.972,175,216v0h0c-0.048,1.907-2.008,3.74-4.43,4.115-2.452.379-4.439-.879-4.439-2.811s1.987-3.8,4.439-4.185a4.929,4.929,0,0,1,2.429.2V204.54l-9.989,2.048v12.379h-0.03c-0.148,1.849-2.055,3.593-4.41,3.957-2.452.379-4.439-.879-4.439-2.81s1.987-3.806,4.439-4.185a4.918,4.918,0,0,1,2.426.2V204h0v-0.769a0.861,0.861,0,0,1,.608-0.846l12.668-2.687a0.564,0.564,0,0,1,.728.6v3.833h0v11.732Z" transform="translate(-151 -197)"/>
</svg>
