<svg id="behaviors.svg" xmlns="http://www.w3.org/2000/svg" width="28" height="28" viewBox="0 0 28 28">
  <defs>
    <style>
      .cls-1 {
        fill: #b1aea8;
        opacity: 0.1;
      }

      .cls-1, .cls-2, .cls-3 {
        fill-rule: evenodd;
      }

      .cls-2, .cls-3 {
        fill: #33332c;
      }

      .cls-2 {
        opacity: 0.4;
      }
    </style>
  </defs>
  <path id="sizer" class="cls-1" d="M49,213.906h0.094V214H49v-0.094ZM76.906,186H77v0.094H76.906V186Z" transform="translate(-49 -186)"/>
  <path class="cls-2" d="M55.926,193.442L66,193.384l4.1,13.467-10.4-.11Z" transform="translate(-49 -186)"/>
  <path class="cls-3" d="M75.085,196.4a6.828,6.828,0,0,1-2.543.587,7.051,7.051,0,0,1-2.532-.593l-0.722-2a3.468,3.468,0,0,1,.138-2.048c-0.038-.1-0.3-0.3-1.735-0.354a2.543,2.543,0,0,0-.3,1.592l3.718,12.785C71.545,208.6,69.1,210,67.462,210H56.61l-0.754-.008A5.279,5.279,0,0,1,52,207.757a3.575,3.575,0,0,1-.947-2.119l-0.042-2a6,6,0,0,1,2.447-.605,5.783,5.783,0,0,1,2.343.61l0.693,2a3.7,3.7,0,0,1-.11,1.959c0.005,0.079.156,0.316,1.671,0.379a2.594,2.594,0,0,0,.289-1.56l-4.022-12.785C53.864,191.4,56.362,190,58.035,190H70.156c4.342,0,4.807,5.391,4.7,4.394ZM61.406,206h6a1,1,0,1,0,0-2h-6A1,1,0,1,0,61.406,206ZM64.3,194h-6a1,1,0,1,0,0,2h6A1,1,0,0,0,64.3,194Zm1.563,5h-6a1,1,0,1,0,0,2h6A1,1,0,0,0,65.859,199ZM56,210" transform="translate(-49 -186)"/>
</svg>
