<svg id="clear.svg" xmlns="http://www.w3.org/2000/svg" width="28" height="28" viewBox="0 0 28 28">
  <defs>
    <style>
      .cls-1 {
        fill: #b1aea8;
        opacity: 0.1;
      }

      .cls-1, .cls-2, .cls-3 {
        fill-rule: evenodd;
      }

      .cls-2, .cls-3 {
        fill: #33332c;
      }

      .cls-2 {
        opacity: 0.4;
      }
    </style>
  </defs>
  <path id="sizer" class="cls-1" d="M253,186h0.094v0.094H253V186Zm27.906,27.906H281V214h-0.094v-0.094Z" transform="translate(-253 -186)"/>
  <path class="cls-2" d="M260.329,195.144l4.414,0.8,4.645-3.194,0.466,3.348,3.739-.151-1.754,5.059,0.531,5.9-3.805-2.131-3.381,4.2-1.769-5.4-4.592-2.943,2.636-2.308Z" transform="translate(-253 -186)"/>
  <path class="cls-3" d="M255.05,191.348l7.626,2.826,0.9-6.866,3.5,5.863,4.148-5.668-0.11,7.41,7.7-1.906-5.384,5.91,6.784,3.987-7.2,1.565,2.862,6.956-7.332-5.272-4.184,7.45-0.589-7.36-6.935,3.811,3.724-7.329-7.476-1.352,6.743-2.924Zm6.248,4.293,4.3,1.912,2.527-3.458,0.064,3.965,4.589-.71-2.8,3.219,1.818,4.937-3.764-3.028-2.963,4.158-0.313-4.672-4.619-.95,3.293-1.712Z" transform="translate(-253 -186)"/>
</svg>
