<svg id="dialog.svg" xmlns="http://www.w3.org/2000/svg" width="28" height="28" viewBox="0 0 28 28">
  <defs>
    <style>
      .cls-1 {
        fill: #b1aea8;
        opacity: 0.1;
      }

      .cls-1, .cls-3 {
        fill-rule: evenodd;
      }

      .cls-2, .cls-3 {
        fill: #33332c;
      }

      .cls-2 {
        opacity: 0.4;
      }
    </style>
  </defs>
  <path id="sizer" class="cls-1" d="M15,186h0.094v0.094H15V186Zm27.906,27.906H43V214H42.906v-0.094Z" transform="translate(-15 -186)"/>
  <rect class="cls-2" x="6" y="6" width="16" height="10"/>
  <path class="cls-3" d="M39.3,204.346c-1.175,1.14-2.64,1.653-5.154,1.653h-3.6a7.14,7.14,0,0,1-1.857,2.684c-3.713,3.329-6.814,3.306-6.814,3.306-1.236-.213-0.912-1.019-0.219-1.43,1.154-.686,1.73-0.937,2.209-2.211a6.051,6.051,0,0,0,.3-2.349h-0.3c-2.515,0-3.979-.513-5.154-1.653s-1.7-2.561-1.7-5v-2.69c0-2.44.528-3.861,1.7-5S21.344,190,23.859,190H34.141c2.515,0,3.98.513,5.154,1.653s1.7,2.561,1.7,5v2.69C41,201.785,40.471,203.206,39.3,204.346Zm-7.566-4.573a5.118,5.118,0,0,1-3.259-1.187,3.687,3.687,0,0,0-4.591,0,0.849,0.849,0,0,1-1.059-1.327,5.374,5.374,0,0,1,6.709,0,3.686,3.686,0,0,0,4.591,0,0.849,0.849,0,0,1,1.059,1.327A5.776,5.776,0,0,1,31.729,199.773Z" transform="translate(-15 -186)"/>
</svg>
