<svg id="exit-to-end.svg" xmlns="http://www.w3.org/2000/svg" width="28" height="28" viewBox="0 0 28 28">
  <defs>
    <style>
      .cls-1 {
        fill: #b1aea8;
        opacity: 0.1;
      }

      .cls-1, .cls-2 {
        fill-rule: evenodd;
      }

      .cls-2 {
        fill: #33332c;
      }
    </style>
  </defs>
  <path id="sizer" class="cls-1" d="M321,186h0.094v0.094H321V186Zm27.906,27.906H349V214h-0.094v-0.094Z" transform="translate(-321 -186)"/>
  <path class="cls-2" d="M344.666,203.49l-5.165-5.751,1.5,6.587-2.439.558-2.509-10.979,2.439-.558,5.166,5.751-1.506-6.587,2.44-.558,2.509,10.979Zm-10.975,2.525-1.808-7.91,2.44-.557,1.808,7.91Zm-0.727-8.8a1.74,1.74,0,1,1,1.29-2.08A1.731,1.731,0,0,1,332.964,197.219Zm-6.285,4,2.44-.557,0.557,2.44-2.439.557,0.827,3.622-2.44.557-2.509-10.979,2.44-.557,3.66-.837,0.557,2.44-3.659.836Z" transform="translate(-321 -186)"/>
</svg>
