<svg id="exit-edge.svg" xmlns="http://www.w3.org/2000/svg" width="28" height="28" viewBox="0 0 28 28">
  <defs>
    <style>
      .cls-1 {
        fill: #b1aea8;
        opacity: 0.1;
      }

      .cls-1, .cls-2, .cls-3 {
        fill-rule: evenodd;
      }

      .cls-2, .cls-3 {
        fill: #322e28;
      }

      .cls-3 {
        opacity: 0.4;
      }
    </style>
  </defs>
  <path id="sizer" class="cls-1" d="M390,231h0.094v0.094H390V231Zm27.906,27.906H418V259h-0.094v-0.094Z" transform="translate(-390 -231)"/>
  <path class="cls-2" d="M407,240a3.575,3.575,0,0,0-2.664,1.295,0.508,0.508,0,0,0-.17.138,2.849,2.849,0,0,1-1.958,1.207c-1.431,0-2.045-2.4-1.943-3.445C400.561,235.656,401,233,401,233h-9v24h9s-0.441-2.646-.737-6.176c-0.082-1.071.545-3.513,1.974-3.513a2.721,2.721,0,0,1,1.874,1.143l0.017,0.015A3.652,3.652,0,0,0,407,250c2.209,0,3-2.239,3-5S409.209,240,407,240Z" transform="translate(-390 -231)"/>
  <path class="cls-3" d="M403.027,233l-0.054.326c0,0.026-.43,2.628-0.718,6.062a2.844,2.844,0,0,0,.177.968c0.071-.068.15-0.151,0.238-0.25a2.653,2.653,0,0,1,.349-0.332A5.509,5.509,0,0,1,407,238c1.173,0,5,.5,5,7s-3.827,7-5,7a5.646,5.646,0,0,1-4.383-2.216c-0.058-.066-0.111-0.123-0.161-0.172a3,3,0,0,0-.2,1.044c0.285,3.4.713,5.99,0.717,6.016L403.028,257H416V233H403.027Z" transform="translate(-390 -231)"/>
</svg>
