<svg id="font-preview-pangram.svg" xmlns="http://www.w3.org/2000/svg" width="28" height="28" viewBox="0 0 28 28">
  <defs>
    <style>
      .cls-1 {
        fill: #b1aea8;
        opacity: 0.1;
      }

      .cls-1, .cls-2 {
        fill-rule: evenodd;
      }

      .cls-2 {
        fill: #33332c;
      }
    </style>
  </defs>
  <path id="sizer" class="cls-1" d="M185,186h0.094v0.094H185V186Zm27.906,27.906H213V214h-0.094v-0.094Z" transform="translate(-185 -186)"/>
  <path id="_1" data-name="1" class="cls-2" d="M207.967,192.99a5.446,5.446,0,0,1-3.488-1.282,3.917,3.917,0,0,0-4.912,0,5.711,5.711,0,0,1-7.18,0,3.917,3.917,0,0,0-4.912,0,0.9,0.9,0,0,1-1.275-.144,0.924,0.924,0,0,1,.141-1.289,5.711,5.711,0,0,1,7.18,0,3.915,3.915,0,0,0,4.912,0,5.711,5.711,0,0,1,7.18,0,3.917,3.917,0,0,0,4.913,0,0.9,0.9,0,0,1,1.274.143,0.925,0.925,0,0,1-.141,1.29A6.148,6.148,0,0,1,207.967,192.99Zm0,6.069a5.446,5.446,0,0,1-3.488-1.282,3.917,3.917,0,0,0-4.912,0,5.711,5.711,0,0,1-7.18,0,3.917,3.917,0,0,0-4.912,0,0.9,0.9,0,0,1-1.275-.144,0.924,0.924,0,0,1,.141-1.289,5.71,5.71,0,0,1,7.18,0,3.915,3.915,0,0,0,4.912,0,5.71,5.71,0,0,1,7.18,0,3.917,3.917,0,0,0,4.913,0,0.9,0.9,0,0,1,1.274.143,0.925,0.925,0,0,1-.141,1.29A6.148,6.148,0,0,1,207.967,199.059Zm-12.238,11.933a5.082,5.082,0,0,1-3.259-1.2,3.654,3.654,0,0,0-4.591,0,0.84,0.84,0,0,1-1.192-.134,0.868,0.868,0,0,1,.133-1.208,5.325,5.325,0,0,1,6.709,0,3.654,3.654,0,0,0,4.591,0,0.84,0.84,0,0,1,1.191.134,0.868,0.868,0,0,1-.132,1.208A5.731,5.731,0,0,1,195.729,210.992Zm12.238-5.864a5.446,5.446,0,0,1-3.488-1.282,3.917,3.917,0,0,0-4.912,0,5.711,5.711,0,0,1-7.18,0,3.917,3.917,0,0,0-4.912,0,0.9,0.9,0,0,1-1.275-.144,0.924,0.924,0,0,1,.141-1.289,5.708,5.708,0,0,1,7.18,0,3.915,3.915,0,0,0,4.912,0,5.708,5.708,0,0,1,7.18,0,3.917,3.917,0,0,0,4.913,0,0.9,0.9,0,0,1,1.274.143,0.925,0.925,0,0,1-.141,1.29A6.148,6.148,0,0,1,207.967,205.128Z" transform="translate(-185 -186)"/>
</svg>
