<svg id="icon-select.svg" xmlns="http://www.w3.org/2000/svg" width="50" height="48" viewBox="0 0 50 48">
  <defs>
    <style>
      .cls-1 {
        fill: #b1aea8;
        opacity: 0.1;
      }

      .cls-1, .cls-3 {
        fill-rule: evenodd;
      }

      .cls-2 {
        opacity: 0.4;
      }

      .cls-3 {
        fill: #33332c;
      }
    </style>
  </defs>
  <path id="sizer" class="cls-1" d="M15,127h0.094v0.094H15V127Zm49.906,47.906H65V175H64.906v-0.094Z" transform="translate(-15 -127)"/>
  <rect id="_" data-name="|" class="cls-2" y="5" width="2" height="38" rx="1" ry="1"/>
  <path class="cls-3" d="M41.831,137.452a1.059,1.059,0,0,0-.8-0.455,1.047,1.047,0,0,0-.776.507l-8.169,9.1a0.986,0.986,0,0,0,.026.937,0.9,0.9,0,0,0,.782.455l16.194-.018a0.892,0.892,0,0,0,.467-0.154,0.933,0.933,0,0,0,.322-0.347,0.987,0.987,0,0,0-.016-0.958Zm0,27.1a0.891,0.891,0,0,1-1.581-.052l-8.169-9.1a0.986,0.986,0,0,1,.026-0.937,0.9,0.9,0,0,1,.782-0.455l16.194,0.018a0.892,0.892,0,0,1,.467.154,0.933,0.933,0,0,1,.322.347,0.987,0.987,0,0,1-.016.958Z" transform="translate(-15 -127)"/>
</svg>
