<svg id="icon-checked.svg" xmlns="http://www.w3.org/2000/svg" width="28" height="28" viewBox="0 0 28 28">
  <defs>
    <style>
      .cls-1 {
        fill: #b1aea8;
        opacity: 0.1;
      }

      .cls-1, .cls-2 {
        fill-rule: evenodd;
      }

      .cls-2 {
        fill: #33332c;
      }
    </style>
  </defs>
  <path id="sizer" class="cls-1" d="M151,93h0.094v0.094H151V93Zm27.906,27.906H179V121h-0.094v-0.094Z" transform="translate(-151 -93)"/>
  <path id="Rounded_Rectangle_1" data-name="Rounded Rectangle 1" class="cls-2" d="M172.8,100.572l-7.179,14.491c-0.008.015-.021,0.023-0.029,0.038a1.771,1.771,0,0,1-.377.488l-0.059.049c-0.041.034-.076,0.072-0.12,0.1a1.571,1.571,0,0,1-.229.1,1.287,1.287,0,0,1-.673.172,1.726,1.726,0,0,1-.269,0,1.7,1.7,0,0,1-.415-0.119,1.631,1.631,0,0,1-.165-0.048c-0.032-.017-0.059-0.041-0.09-0.06a1.406,1.406,0,0,1-.131-0.086,1.74,1.74,0,0,1-.384-0.392c-0.015-.021-0.038-0.032-0.052-0.053l-4.344-6.67a1.814,1.814,0,0,1,.478-2.474,1.707,1.707,0,0,1,2.408.491l2.7,4.142,5.84-11.788a1.714,1.714,0,0,1,2.335-.778A1.807,1.807,0,0,1,172.8,100.572Z" transform="translate(-151 -93)"/>
</svg>
