<svg id="layers-items.svg" xmlns="http://www.w3.org/2000/svg" width="28" height="28" viewBox="0 0 28 28">
  <defs>
    <style>
      .cls-1 {
        fill: #b1aea8;
        opacity: 0.1;
      }

      .cls-1, .cls-2 {
        fill-rule: evenodd;
      }

      .cls-2 {
        fill: #33332c;
      }
    </style>
  </defs>
  <path id="sizer" class="cls-1" d="M83,152h0.094v0.094H83V152Zm27.906,27.906H111V180h-0.094v-0.094Z" transform="translate(-83 -152)"/>
  <path id="_1" data-name="1" class="cls-2" d="M108.8,161.958l0.8-.8a0.69,0.69,0,0,0,0-.975L107.425,158s2.05-1.719,1.058-2.711c-0.711-.711-0.749-0.76-0.749-0.76a1.54,1.54,0,0,0-2.177,0L94.032,166.051a0.268,0.268,0,0,1-.32.042,6.373,6.373,0,0,0-7.643.8c-2.033,2.033-2.589,5.8-.709,8.128a8.8,8.8,0,0,0,2.6,2.283,6.484,6.484,0,0,0,7.9-.622,6.372,6.372,0,0,0,.8-7.643,0.264,0.264,0,0,1,.039-0.318l2.065-2.064a0.77,0.77,0,0,1,1.141-.166l1.695,1.694a0.688,0.688,0,0,0,.975,0l0.8-.8a0.688,0.688,0,0,0,0-.975L101.6,164.63a0.5,0.5,0,0,1-.069-0.74l0.594-.594a0.523,0.523,0,0,1,.81.081l0.846,0.847a0.69,0.69,0,0,0,.975,0l0.8-.8a0.69,0.69,0,0,0,0-.975l-0.8-.8a0.691,0.691,0,0,1,0-.976l0.4-.4a0.69,0.69,0,0,1,.975,0l1.694,1.694A0.689,0.689,0,0,0,108.8,161.958ZM93.188,174.014a3.16,3.16,0,1,1-.2-4.247A3.014,3.014,0,0,1,93.188,174.014Z" transform="translate(-83 -152)"/>
</svg>
