<svg id="layers-sprites.svg" xmlns="http://www.w3.org/2000/svg" width="28" height="28" viewBox="0 0 28 28">
  <defs>
    <style>
      .cls-1 {
        fill: #b1aea8;
        opacity: 0.1;
      }

      .cls-1, .cls-2, .cls-3 {
        fill-rule: evenodd;
      }

      .cls-2, .cls-3 {
        fill: #33332c;
      }

      .cls-2 {
        opacity: 0.4;
      }

      .cls-3 {
        mix-blend-mode: darken;
      }
    </style>
  </defs>
  <path id="sizer" class="cls-1" d="M49,152h0.094v0.094H49V152Zm27.906,27.906H77V180H76.906v-0.094Z" transform="translate(-49 -152)"/>
  <path id="Rounded_Rectangle_9" data-name="Rounded Rectangle 9" class="cls-2" d="M62.145,161.579l-6.239,8.554,0.52,4.586,3.705,2.533,3.8,0.517,4.464-3.9,1.269-5.726-1.1-7-4.458-2.293Zm-9.084-.317c0.6,0.83,1.661,1.268,2.128,2.181a2.607,2.607,0,0,1,.21.59,0.7,0.7,0,0,0,.17.5c0.184,0.084.248-.169,0.3-0.29,0.08-.184.153-0.371,0.216-0.561a4.97,4.97,0,0,0,.247-1.171,3.257,3.257,0,0,0-.707-2.4c-0.431-.492-1.022-0.8-1.456-1.292A5.879,5.879,0,0,1,53.7,158.3a0.764,0.764,0,0,1-.128-0.287c-0.024-.126-0.016-0.3-0.195-0.236a0.793,0.793,0,0,0-.333.376,3.119,3.119,0,0,0-.424,1.166A2.663,2.663,0,0,0,53.061,161.262Zm1.957-4c0.8,0.818,2.2,1.25,2.825,2.151a2.189,2.189,0,0,1,.278.582,0.592,0.592,0,0,0,.226.492,0.354,0.354,0,0,0,.4-0.287,5.811,5.811,0,0,0,.287-0.553,3.842,3.842,0,0,0,.328-1.155,2.682,2.682,0,0,0-.938-2.366c-0.572-.485-1.357-0.791-1.933-1.274a6.822,6.822,0,0,1-.623-0.512,0.682,0.682,0,0,1-.17-0.283c-0.032-.125-0.022-0.291-0.258-0.233a0.917,0.917,0,0,0-.442.371,2.626,2.626,0,0,0-.563,1.149A2.12,2.12,0,0,0,55.018,157.26Z" transform="translate(-49 -152)"/>
  <path class="cls-3" d="M60.547,153.263c-2.06-.808,2.4,5.275-1.093,8.895-4.241,4.391-5.092,5.918-4.695,10.666,0.317,3.785,3.708,6.941,9.71,6.021a8.564,8.564,0,0,0,7.095-9.815C70.964,165.115,69.7,156.848,60.547,153.263Zm3.8,23.02c-3.785.738-5.9-1.445-6.086-3.88a6.072,6.072,0,0,1,1.057-3.925,12.508,12.508,0,0,0,1.664-3.832,6.012,6.012,0,0,1,1.013,5.1c-0.008-.076,2.475-1.482,2.965-3.062,0.638-2.058-.6-4.55-0.854-6.038,0,0,3.671,2.289,4.5,9.041C68.982,172.686,67.141,175.739,64.351,176.283Z" transform="translate(-49 -152)"/>
</svg>
