<svg id="layers-tiles.svg" xmlns="http://www.w3.org/2000/svg" width="27" height="20.938" viewBox="0 0 27 20.938">
  <defs>
    <style>
      .cls-1, .cls-2 {
        fill: #33332c;
        fill-rule: evenodd;
      }

      .cls-1 {
        opacity: 0.4;
      }
    </style>
  </defs>
  <path id="Rounded_Rectangle_10" data-name="Rounded Rectangle 10" class="cls-1" d="M144.006,131.647l0.019,0.009v0.054A0.559,0.559,0,0,0,144.006,131.647Zm-26.978.056v-0.069l0.024-.011A0.81,0.81,0,0,0,117.028,131.7Zm0.41,0.66,12.085,7.728a2.02,2.02,0,0,0,2,0l12.085-7.728a0.786,0.786,0,0,0,.412-0.629c0,0.374,0,2.418,0,2.629a0.786,0.786,0,0,1-.416.642l-12.085,7.728a2.025,2.025,0,0,1-2,0l-12.085-7.728a0.786,0.786,0,0,1-.416-0.642c0-.2,0-2.145.006-2.622A0.782,0.782,0,0,0,117.438,132.363Z" transform="translate(-117.031 -122.062)"/>
  <path class="cls-2" d="M143.613,130.065l-12.085-7.728a2.025,2.025,0,0,0-2,0l-12.085,7.728a0.7,0.7,0,0,0,0,1.283l12.085,7.728a2.025,2.025,0,0,0,2,0l12.085-7.728A0.7,0.7,0,0,0,143.613,130.065Z" transform="translate(-117.031 -122.062)"/>
</svg>
