<svg id="layers-player.svg" xmlns="http://www.w3.org/2000/svg" width="28" height="28" viewBox="0 0 28 28">
  <defs>
    <style>
      .cls-1 {
        fill: #b1aea8;
        opacity: 0.1;
      }

      .cls-1, .cls-2 {
        fill-rule: evenodd;
      }

      .cls-2 {
        fill: #33332c;
      }
    </style>
  </defs>
  <path id="sizer" class="cls-1" d="M15,152h0.094v0.094H15V152Zm27.906,27.906H43V180H42.906v-0.094Z" transform="translate(-15 -152)"/>
  <path id="_1" data-name="1" class="cls-2" d="M40.449,163.118l-6.468-1.788a1.209,1.209,0,0,1-.814-1.148V159.5a4.4,4.4,0,0,0-3.394-4.419,4.2,4.2,0,0,0-4.939,4.162v0.942a1.209,1.209,0,0,1-.815,1.149l-6.468,1.788c-3.033.876-1.051,3.875-1.051,3.875a2.021,2.021,0,0,0,1.524,1.04l4.291-.013a0.723,0.723,0,0,1,.628,1.046l-4.612,7.622a0.9,0.9,0,0,0,.793,1.305h5.992a1.631,1.631,0,0,0,1.387-.782l2.369-5.852a0.148,0.148,0,0,1,.253,0l2.369,5.852a1.631,1.631,0,0,0,1.387.782h5.992a0.9,0.9,0,0,0,.793-1.305l-4.612-7.622a0.723,0.723,0,0,1,.629-1.046H39.9a1.97,1.97,0,0,0,1.6-1.027S43.463,163.883,40.449,163.118Z" transform="translate(-15 -152)"/>
</svg>
