<svg id="part-join.svg" xmlns="http://www.w3.org/2000/svg" width="28" height="28" viewBox="0 0 28 28">
  <defs>
    <style>
      .cls-1 {
        fill: #b1aea8;
        opacity: 0.1;
      }

      .cls-1, .cls-2 {
        fill-rule: evenodd;
      }

      .cls-2, .cls-3 {
        fill: #33332c;
      }

      .cls-3 {
        opacity: 0.4;
      }
    </style>
  </defs>
  <path id="sizer" class="cls-1" d="M49,231h0.094v0.094H49V231Zm27.906,27.906H77V259H76.906v-0.094Z" transform="translate(-49 -231)"/>
  <path class="cls-2" d="M53,252h6l4-12h0l4,12h6a0.883,0.883,0,0,0,1-.636V238.636A0.883,0.883,0,0,0,73,238H53a0.883,0.883,0,0,0-1,.636v12.728A0.883,0.883,0,0,0,53,252Z" transform="translate(-49 -231)"/>
  <rect class="cls-3" x="13" y="3" width="2" height="22"/>
</svg>
