<svg id="pause.svg" xmlns="http://www.w3.org/2000/svg" width="28" height="28" viewBox="0 0 28 28">
  <defs>
    <style>
      .cls-1 {
        fill: #b1aea8;
        opacity: 0.1;
      }

      .cls-1, .cls-2 {
        fill-rule: evenodd;
      }

      .cls-2 {
        fill: #33332c;
      }
    </style>
  </defs>
  <path id="sizer" class="cls-1" d="M49,197h0.094v0.094H49V197Zm27.906,27.906H77V225H76.906v-0.094Z" transform="translate(-49 -197)"/>
  <path id="_1" data-name="1" class="cls-2" d="M55,202a2,2,0,0,1,2-2h2a2,2,0,0,1,2,2v18a2,2,0,0,1-2,2H57a2,2,0,0,1-2-2V202Zm10,0a2,2,0,0,1,2-2h2a2,2,0,0,1,2,2v18a2,2,0,0,1-2,2H67a2,2,0,0,1-2-2V202Z" transform="translate(-49 -197)"/>
</svg>
