<svg id="play.svg" xmlns="http://www.w3.org/2000/svg" width="28" height="28" viewBox="0 0 28 28">
  <defs>
    <style>
      .cls-1 {
        fill: #b1aea8;
        opacity: 0.1;
      }

      .cls-1, .cls-2 {
        fill-rule: evenodd;
      }

      .cls-2 {
        fill: #33332c;
      }
    </style>
  </defs>
  <path id="sizer" class="cls-1" d="M15,197h0.094v0.094H15V197Zm27.906,27.906H43V225H42.906v-0.094Z" transform="translate(-15 -197)"/>
  <path id="Rounded_Rectangle_14" data-name="Rounded Rectangle 14" class="cls-2" d="M38.548,211.418a1.036,1.036,0,0,0,.455-0.9,1.021,1.021,0,0,0-.507-0.869l-17.1-9.562a0.89,0.89,0,0,0-.936.029A1.055,1.055,0,0,0,20,201v19a1.01,1.01,0,0,0,.177.5,0.985,0.985,0,0,0,.348.361,0.893,0.893,0,0,0,.957-0.018Z" transform="translate(-15 -197)"/>
</svg>
