<svg id="restore.svg" xmlns="http://www.w3.org/2000/svg" width="28" height="28" viewBox="0 0 28 28">
  <defs>
    <style>
      .cls-1 {
        fill: #b1aea8;
        opacity: 0.1;
      }

      .cls-1, .cls-2 {
        fill-rule: evenodd;
      }

      .cls-2 {
        fill: #33332c;
      }
    </style>
  </defs>
  <path id="sizer" class="cls-1" d="M219,231h0.094v0.094H219V231Zm27.906,27.906H247V259h-0.094v-0.094Z" transform="translate(-219 -231)"/>
  <path class="cls-2" d="M245.3,247.415a8.4,8.4,0,0,1-1.66.1,6.852,6.852,0,0,0-2.192.939,7.415,7.415,0,0,0-1.573,2.142,5.456,5.456,0,0,1-2.842,2.133,14.589,14.589,0,0,1-3.79,1.022c-1.3.075-2.008,0.771-3.02,1.465-1.076.736-4.97,1.454-5.508-.423-0.224-.783.576-1.254,1.34-1.527l-0.6-1.254a0.5,0.5,0,0,1,.236-0.667l0.9-.43a0.5,0.5,0,0,1,.666.236l0.734,1.539c0.885-.312,1.87-0.748,3.094-1.26l-0.469-1.587a0.5,0.5,0,0,1,.337-0.621l0.959-.284a0.5,0.5,0,0,1,.621.338l0.416,1.4c0.331-.128.676-0.258,1.04-0.391,4.437-1.619,3.452-4.663,3.3-4.145a4.015,4.015,0,0,0-2.353-.205l0.263,1.4a0.5,0.5,0,0,1-.4.584l-0.983.185a0.5,0.5,0,0,1-.584-0.4l-0.262-1.4c-0.324.073-.626,0.142-0.869,0.188a11.382,11.382,0,0,0-2.921.957l0.547,1.857a0.5,0.5,0,0,1-.338.621l-0.959.283a0.5,0.5,0,0,1-.621-0.338l-0.358-1.213a6.834,6.834,0,0,1-3.86,1.815c-1.4.124-3.372-.229-3.559-1.88-0.306-2.706,1.509-4.861,3.662-6.211a29.09,29.09,0,0,1,3.127-1.549,8.19,8.19,0,0,0,3.351-2.511c0.459-.628.6-1.455,1.049-2.058a7.855,7.855,0,0,1,1.185-1.239,4.947,4.947,0,0,1,1.657-.426,11.522,11.522,0,0,1,2.623-.668,4.839,4.839,0,0,0,.852-0.063c0.657-.217,1.008-0.976,1.707-1.067,1.9-.248,1.169,2.235,1.673,3.3,0.395,0.831,1.468.881,2.153,1.405a2.658,2.658,0,0,1,.945,2.76,3.734,3.734,0,0,0,1.186,3.91,1.614,1.614,0,0,1,.8,1.335C245.987,246.157,245.893,247.131,245.3,247.415Zm-10.476-7.177a1.783,1.783,0,0,0-2.88-.8,3.58,3.58,0,0,0-1.727,2.794c0.084,1.1,1.933,1.376,2.8,1.069C233.865,243.005,235.089,241.155,234.819,240.238Z" transform="translate(-219 -231)"/>
</svg>
