<svg id="rotate.svg" xmlns="http://www.w3.org/2000/svg" width="28" height="28" viewBox="0 0 28 28">
  <defs>
    <style>
      .cls-1 {
        fill: #b1aea8;
        opacity: 0.1;
      }

      .cls-1, .cls-2, .cls-3 {
        fill-rule: evenodd;
      }

      .cls-2, .cls-3 {
        fill: #33332c;
      }

      .cls-3 {
        opacity: 0.4;
      }
    </style>
  </defs>
  <path id="sizer" class="cls-1" d="M355,118h0.094v0.094H355V118Zm27.906,27.906H383V146h-0.094v-0.094Z" transform="translate(-355 -118)"/>
  <path id="Rounded_Rectangle_14" data-name="Rounded Rectangle 14" class="cls-2" d="M378.327,129.394s0,0.137-.018.439a1,1,0,0,1-1.071.923,0.988,0.988,0,0,1-.908-0.951s0.533-1.448-.825-4.007a6.073,6.073,0,0,0-7.432-2.47l0.96,1.581a0.978,0.978,0,0,1-.33,1.346,0.964,0.964,0,0,1-.5.142l-6.717.035a0.977,0.977,0,0,1-.871-1.435l3.6-5.259a0.98,0.98,0,0,1,1.7-.053l1.119,1.942A8.012,8.012,0,0,1,378.327,129.394Z" transform="translate(-355 -118)"/>
  <path id="Rounded_Rectangle_15" data-name="Rounded Rectangle 15" class="cls-3" d="M359.886,131.622l11.2-4.31a1,1,0,0,1,1.293.574l4.31,11.2a1,1,0,0,1-.574,1.293l-11.2,4.31a1,1,0,0,1-1.293-.574l-4.31-11.2A1,1,0,0,1,359.886,131.622Z" transform="translate(-355 -118)"/>
</svg>
