<svg id="create-corners.svg" xmlns="http://www.w3.org/2000/svg" width="28" height="28" viewBox="0 0 28 28">
  <defs>
    <style>
      .cls-1 {
        fill: #b1aea8;
        opacity: 0.1;
      }

      .cls-1, .cls-2, .cls-3 {
        fill-rule: evenodd;
      }

      .cls-2, .cls-3 {
        fill: #33332c;
      }

      .cls-2 {
        opacity: 0.23;
      }
    </style>
  </defs>
  <path id="sizer" class="cls-1" d="M151,265h0.094v0.094H151V265Zm27.906,27.906H179V293h-0.094v-0.094Z" transform="translate(-151 -265)"/>
  <path class="cls-2" d="M166,292v-3.187l6.433-1.274,1.919-.379L172.985,280H178v12H166Zm7.539-20.433-0.379-1.919L166,271.015V266h12v12h-3.187Zm-15.972-1.106-1.919.379,1.367,7.16H152V266h12v3.187ZM164,285l-5.586,1.066-1.2-6.061H164v5Zm0-7h-5l-1.066-5.586,6.061-1.2V278Zm2-5,5.586-1.066,1.2,6.061H166v-5Zm0,7h5l1.066,5.586-6.061,1.2V280Zm-9.539,6.433,0.379,1.919,7.16-1.367V292H152V280h3.187Z" transform="translate(-151 -265)"/>
  <path class="cls-3" d="M174.813,278l-1.274-6.433a1.988,1.988,0,0,0-2.333-1.546l-5.206.994v-1.991l4.826-.921a3.977,3.977,0,0,1,4.667,3.091L176.841,278h-2.028ZM164,269.187l-6.433,1.274a1.988,1.988,0,0,0-1.546,2.333L157.015,278h-1.991l-0.921-4.826a3.977,3.977,0,0,1,3.091-4.667L164,267.159v2.028ZM155.471,280l-0.063.012,0-.012h0.065Zm0.99,6.433a1.988,1.988,0,0,0,2.333,1.546l5.206-.994v1.991l-4.826.921a3.977,3.977,0,0,1-4.667-3.091L153.159,280h2.028ZM171.775,272.9l1.01,5.1H166v-5l4.609-.879A0.993,0.993,0,0,1,171.775,272.9ZM164,269.471l-0.012-.063,0.012,0v0.065Zm-5.1,2.754,5.1-1.01V278h-5l-0.879-4.609A0.993,0.993,0,0,1,158.9,272.225ZM158.225,285.1l-1.01-5.1H164v5l-4.609.879A0.993,0.993,0,0,1,158.225,285.1ZM166,288.529l0.012,0.063-0.012,0v-0.065Zm5.874-3.92a0.993,0.993,0,0,1-.773,1.166l-5.1,1.01V280h5Zm2.72-6.609h-0.065l0.063-.012ZM166,288.813l6.433-1.274a1.988,1.988,0,0,0,1.546-2.333L172.985,280h1.991l0.921,4.826a3.977,3.977,0,0,1-3.091,4.667L166,290.841v-2.028Z" transform="translate(-151 -265)"/>
</svg>
