<svg id="sample.svg" xmlns="http://www.w3.org/2000/svg" width="28" height="28" viewBox="0 0 28 28">
  <defs>
    <style>
      .cls-1 {
        fill: #b1aea8;
        opacity: 0.1;
      }

      .cls-1, .cls-2, .cls-3 {
        fill-rule: evenodd;
      }

      .cls-2, .cls-3 {
        fill: #33332c;
      }

      .cls-3 {
        opacity: 0.4;
      }
    </style>
  </defs>
  <path id="sizer" class="cls-1" d="M185,231h0.188v0.094H185V231Zm27.813,27.906H213V259h-0.187v-0.094Z" transform="translate(-185 -231)"/>
  <path class="cls-2" d="M205.5,247.261l2.688,2.689a3,3,0,0,1-4.242,4.242l-2.689-2.688C202.9,250.627,205.009,248.7,205.5,247.261Zm-2.968,1.275c-2.344,2.343-5.035,3.451-6.011,2.474-0.661-.66-0.35-2.11.636-3.7a3.582,3.582,0,0,0,3.031-1.116,3.5,3.5,0,0,0,1.123-3.035c1.589-.982,3.036-1.292,3.695-0.632C205.987,243.5,204.879,246.192,202.536,248.536Z" transform="translate(-185 -231)"/>
  <path class="cls-3" d="M198.95,249.192l-7.314-7.313a5.478,5.478,0,0,1-1.308-3.557c-0.161-.335-1.006-0.169-1.71-0.77a2.095,2.095,0,0,1,2.934-2.934c0.6,0.7.435,1.549,0.77,1.71a5.478,5.478,0,0,1,3.557,1.308l7.313,7.314C204.364,246.121,200.121,250.364,198.95,249.192Z" transform="translate(-185 -231)"/>
</svg>
