<svg id="lasso.svg" xmlns="http://www.w3.org/2000/svg" width="28" height="28.031" viewBox="0 0 28 28.031">
  <defs>
    <style>
      .cls-1 {
        fill: #b1aea8;
        opacity: 0.1;
      }

      .cls-1, .cls-2 {
        fill-rule: evenodd;
      }

      .cls-2 {
        fill: #33332c;
      }
    </style>
  </defs>
  <path id="sizer" class="cls-1" d="M390,196.969h0.094v0.093H390v-0.093Zm27.906,27.906H418v0.094h-0.094v-0.094Z" transform="translate(-390 -196.969)"/>
  <path class="cls-2" d="M404,216c-2.45,0-5.208.256-6-2-1.1,1.02-1.348,2.735-.87,3.338,2.488,3.131,10.257,1.863,13.045,1.108a3.064,3.064,0,0,1,3.3.9c0.884,1.2.63,2.98-.816,5.653h-3.206c0.007-.013.007-0.027,0.014-0.039,1.474-2.367,1.711-3.458,1.738-3.849a1.573,1.573,0,0,0-.319.039c-1.2.324-11.873,3.037-15.922-2.066-1.186-1.493-.872-3.508-0.054-5.37l-0.007,0L396,212s-1.545,1.254-2.452.738A6.259,6.259,0,0,1,391,208c0-4.418,5.82-8,13-8s13,3.582,13,8S411.18,216,404,216Zm0-13c-5.523,0-10,2.239-10,5a3,3,0,0,0,.779,1.936c0.006,0,.01,0,0.017.011,1.227,0.964,2.619-.155,2.987-0.542a1.377,1.377,0,0,1,1.959-.04,1.408,1.408,0,0,1,.045,1.975c-0.009.01-.366,0.4-0.825,0.974A18.1,18.1,0,0,0,404,213c5.523,0,10-2.239,10-5S409.523,203,404,203Z" transform="translate(-390 -196.969)"/>
</svg>
