<svg id="grab.svg" xmlns="http://www.w3.org/2000/svg" width="28" height="28" viewBox="0 0 28 28">
  <defs>
    <style>
      .cls-1 {
        fill: #b1aea8;
        opacity: 0.1;
      }

      .cls-1, .cls-2 {
        fill-rule: evenodd;
      }

      .cls-2 {
        fill: #33332c;
      }
    </style>
  </defs>
  <path id="sizer" class="cls-1" d="M390,95h0.094v0.094H390V95Zm27.906,27.906H418V123h-0.094v-0.094Z" transform="translate(-390 -95)"/>
  <path class="cls-2" d="M406.726,107.543c-0.05-.731.058-4.135,0.058-4.135a36.3,36.3,0,0,1,.341-5.024,1.308,1.308,0,0,1,.823-1.2,1.069,1.069,0,0,1,1.378.4,1.738,1.738,0,0,1,.271.856,21.9,21.9,0,0,1,.145,3.451c-0.093,1.345-.351,2.095-0.349,3.15,0,0.937-.071,1.874-0.109,2.811a0.723,0.723,0,0,0,.01.349,1.6,1.6,0,0,0,.55.767c0.488,0.132.411-.4,0.5-0.676,0.423-1.395.836-2.8,1.215-4.2,0.19-.7.312-1.427,0.445-2.145a1.084,1.084,0,0,1,1.046-.97,0.9,0.9,0,0,1,.951,1.116c-0.125,1.4-.3,2.806-0.528,4.2-0.249,1.518-.661,3.012-0.843,4.536a18.213,18.213,0,0,0,.188,2.606,10.663,10.663,0,0,1-.119,2.166c-0.205,1.171-.483,2.332-0.781,3.484a3.173,3.173,0,0,1-2.935,2.325c-1.276.206-2.55,0.448-3.836,0.569a5.441,5.441,0,0,1-3.565-.761c-1.912-1.23-3.294-3.011-5.415-4.385-1.106-.6-2.556-2.556-3.548-3.483a1.665,1.665,0,0,1-.528-1.771,1.492,1.492,0,0,1,1.739-.523c1.525,0.384,2.64,2.131,3.951,2.941,0.791,0.488,1.617,1.061,1.914.183a7.5,7.5,0,0,0,.4-3.568,26.979,26.979,0,0,0-1.953-5.943c-0.267-.966-1.629-3.49-1.632-4.408a1.1,1.1,0,0,1,.754-1.132,1.165,1.165,0,0,1,1.206.356c0.344,0.34.709,0.227,2.3,3.649,0.468,1.007,1.827,3.915,2.008,4.661,0.078,0.322.148,0.748,0.589,0.582a0.943,0.943,0,0,0,.221-0.792c-0.152-.85-0.423-1.679-0.578-2.529-0.225-1.233-.527-2.6-0.711-3.841-0.156-1.05-.2-1.974-0.3-3.03a1.86,1.86,0,0,1,.4-1.854,1.16,1.16,0,0,1,1.191-.26,1.094,1.094,0,0,1,.753.912c0.4,1.957.8,3.66,1.2,5.616,0.264,1.269.677,4.427,0.71,4.595a1.347,1.347,0,0,0,.266.411Z" transform="translate(-390 -95)"/>
</svg>
