<svg id="select-rect.svg" xmlns="http://www.w3.org/2000/svg" width="28" height="28.031" viewBox="0 0 28 28.031">
  <defs>
    <style>
      .cls-1 {
        fill: #b1aea8;
        opacity: 0.1;
      }

      .cls-1, .cls-2 {
        fill-rule: evenodd;
      }

      .cls-2 {
        fill: #33332c;
      }
    </style>
  </defs>
  <path id="sizer" class="cls-1" d="M390,230.969h0.094v0.093H390v-0.093Zm27.906,27.906H418v0.094h-0.094v-0.094Z" transform="translate(-390 -230.969)"/>
  <path class="cls-2" d="M408,250c-2.443.19-10.636,0.985-10-2a4.737,4.737,0,0,0-1,5c2.488,3.132,10.387.2,13.175-.554a3.064,3.064,0,0,1,3.3.9c0.884,1.2.63,2.98-.816,5.653h-3.206c0.007-.013.007-0.027,0.014-0.039,1.474-2.367,1.711-3.458,1.738-3.849a1.573,1.573,0,0,0-.319.039c-1.2.324-11.836,4.953-15.886-.15-1.186-1.492-.908-4.424-0.09-6.286l-0.007,0L396,247s-1.545,1.254-2.452.738A8.32,8.32,0,0,1,391,242c0-2.692.161-8.074,3.474-9.524,1.106-.484,5.344.509,9.526,0.524,3.854,0.014,7.655-.967,9-1,5.343-.131,4.477,4.275,4,9C416.509,245.858,417.087,249.3,408,250Zm4-15c-1.24.045-4.583,0.92-7.881,0.871-3.441-.051-7.833-1.018-8.733-0.621-2.076.916-1.386,6.256-1.386,7.75a3,3,0,0,0,.779,1.936c0.006,0,.01,0,0.017.011,1.227,0.964,2.619-.155,2.987-0.542a1.377,1.377,0,0,1,1.959-.04,1.408,1.408,0,0,1,.045,1.975A1.818,1.818,0,0,0,399,247c3.327,0.733,6.591.387,10,0,5.315-.6,4.866-3.8,5-6C414.215,237.459,415.626,234.868,412,235Z" transform="translate(-390 -230.969)"/>
</svg>
