<svg id="fill.svg" xmlns="http://www.w3.org/2000/svg" width="28" height="28" viewBox="0 0 28 28">
  <defs>
    <style>
      .cls-1 {
        fill: #b1aea8;
        opacity: 0.1;
      }

      .cls-1, .cls-2, .cls-3 {
        fill-rule: evenodd;
      }

      .cls-2, .cls-3 {
        fill: #33332c;
      }

      .cls-3 {
        opacity: 0.4;
      }
    </style>
  </defs>
  <path id="sizer" class="cls-1" d="M151,231h0.187v0.094H151V231Zm27.813,27.906H179V259h-0.187v-0.094Z" transform="translate(-151 -231)"/>
  <path id="bucket" class="cls-2" d="M174.006,253.777a7.28,7.28,0,0,1-10.335.947l-4.547-4.59c-0.047-.569-0.118-2.985,1.873-3.745a8.764,8.764,0,0,0,3.585-2.272,9.267,9.267,0,0,0,2.467-7.075,7.138,7.138,0,0,0-8.157,1.7c-1.752,1.834-2.957,3.968-2.037,6.879a7.145,7.145,0,0,0-.685,1.537c-0.367-.36-0.831-0.815-1.126-1.093-1.906-1.8-1.325-6.109,1.73-9.306s7.37-4.012,9.277-2.21c0.234,0.221.49,0.471,0.731,0.709l-0.007-.025,7.9,7.978S179.391,247.915,174.006,253.777Z" transform="translate(-151 -231)"/>
  <path class="cls-3" d="M159.239,243.272a6.651,6.651,0,0,1,4.775-.055,10.05,10.05,0,0,1-4.263,2.7c-2.144.625-2.984,4.088-1.807,6.64A2.4,2.4,0,0,1,156.405,256a2.605,2.605,0,0,1-3.038-2.454c-0.1-1.317,2.2-2.54,2.341-4.03C155.951,247.034,156.678,244.335,159.239,243.272Z" transform="translate(-151 -231)"/>
</svg>
