<svg id="pointer.svg" xmlns="http://www.w3.org/2000/svg" width="28" height="28" viewBox="0 0 28 28">
  <defs>
    <style>
      .cls-1 {
        fill: #b1aea8;
        opacity: 0.1;
      }

      .cls-1, .cls-2 {
        fill-rule: evenodd;
      }

      .cls-2 {
        fill: #33332c;
      }
    </style>
  </defs>
  <path id="sizer" class="cls-1" d="M390,163h0.094v0.094H390V163Zm27.906,27.906H418V191h-0.094v-0.094Z" transform="translate(-390 -163)"/>
  <path id="Rounded_Rectangle_29" data-name="Rounded Rectangle 29" class="cls-2" d="M410.713,177.643a1.007,1.007,0,0,1-.384.36l-4.882.175a1.229,1.229,0,0,1,.078.111l3.351,7.658a1.5,1.5,0,0,1-.773,1.976l-0.916.4a1.5,1.5,0,0,1-1.976-.773l-3.35-7.658a1.133,1.133,0,0,1-.039-0.121l-3.4,3.443a1.053,1.053,0,0,1-1-.066,0.89,0.89,0,0,1-.4-0.846l-0.009-16.464a1.02,1.02,0,0,1,.593-0.813,1.038,1.038,0,0,1,1.01.055l11.89,11.229a0.894,0.894,0,0,1,.4.87A0.994,0.994,0,0,1,410.713,177.643Z" transform="translate(-390 -163)"/>
</svg>
