<svg id="sheep.svg" xmlns="http://www.w3.org/2000/svg" width="28" height="28" viewBox="0 0 28 28">
  <defs>
    <style>
      .cls-1 {
        fill: #b1aea8;
        opacity: 0.1;
      }

      .cls-1, .cls-2, .cls-3 {
        fill-rule: evenodd;
      }

      .cls-2, .cls-3 {
        fill: #33332c;
      }

      .cls-2 {
        opacity: 0.4;
      }
    </style>
  </defs>
  <path id="sizer" class="cls-1" d="M424,95h0.094v0.094H424V95Zm27.906,27.906H452V123h-0.094v-0.094Z" transform="translate(-424 -95)"/>
  <path class="cls-2" d="M444.5,121a1.5,1.5,0,0,1-1.5-1.5v-3.674a2.519,2.519,0,0,0,.49-0.636,3.762,3.762,0,0,0,2.51.2V119.5A1.5,1.5,0,0,1,444.5,121Zm-8,0a1.5,1.5,0,0,1-1.5-1.5v-4.128a3.729,3.729,0,0,0,2.785-.139,2.538,2.538,0,0,0,.215.274V119.5A1.5,1.5,0,0,1,436.5,121Zm-5.251-12.958c0.028,0.022.046,0.052,0.076,0.073a3.236,3.236,0,0,0,.107,2.946,1.912,1.912,0,0,0,.162.234c-1.56,1.786-4.319,2.859-5.672,1.712-1.369-1.162-.774-4.156.775-5.982a5.56,5.56,0,0,1,.749-0.712C427.791,107.681,429.643,108.03,431.249,108.042Z" transform="translate(-424 -95)"/>
  <path class="cls-3" d="M450.7,110.651a3.044,3.044,0,0,1-2.626,1.766,2.329,2.329,0,0,1-1.188,2.6,3.713,3.713,0,0,1-3.4.169,3.442,3.442,0,0,1-5.7.043,3.716,3.716,0,0,1-3.4-.117,2.345,2.345,0,0,1-1.247-2.585,3.075,3.075,0,0,1-2.666-1.726,2.081,2.081,0,0,1,.071-1.71,3.247,3.247,0,1,1,2.481-5.42,0.05,0.05,0,0,0,.013,0,2.328,2.328,0,0,1,1.188-2.6,3.71,3.71,0,0,1,3.4-.169,3.443,3.443,0,0,1,5.7-.044,3.716,3.716,0,0,1,3.4.117,2.346,2.346,0,0,1,1.246,2.586,3.075,3.075,0,0,1,2.667,1.726,2.249,2.249,0,0,1-.853,2.689A2.264,2.264,0,0,1,450.7,110.651Z" transform="translate(-424 -95)"/>
</svg>
